<?xml version="1.0" encoding="UTF-8" standalone="no"?>
<!DOCTYPE svg PUBLIC "-//W3C//DTD SVG 1.1//EN"
 "http://www.w3.org/Graphics/SVG/1.1/DTD/svg11.dtd">
<!-- Generated by graphviz version 2.34.0 (20140110.0949)
 -->
<!-- Title: example3 Pages: 1 -->
<svg width="733pt" height="260pt"
 viewBox="0.00 0.00 732.87 260.00" xmlns="http://www.w3.org/2000/svg" xmlns:xlink="http://www.w3.org/1999/xlink">
<g id="graph0" class="graph" transform="scale(1 1) rotate(0) translate(4 256)">
<title>example3</title>
<polygon fill="white" stroke="white" points="-4,4 -4,-256 728.872,-256 728.872,4 -4,4"/>
<!-- N0 -->
<g id="node1" class="node"><title>N0</title>
<ellipse fill="none" stroke="black" cx="388.019" cy="-234" rx="30.3206" ry="18"/>
<text text-anchor="middle" x="388.019" y="-230.3" font-family="Times,serif" font-size="14.00">cargo</text>
</g>
<!-- N1 -->
<g id="node2" class="node"><title>N1</title>
<ellipse fill="none" stroke="black" cx="35.0189" cy="-90" rx="34.1708" ry="18"/>
<text text-anchor="middle" x="35.0189" y="-86.3" font-family="Times,serif" font-size="14.00">docopt</text>
</g>
<!-- N0&#45;&gt;N1 -->
<g id="edge1" class="edge"><title>N0&#45;&gt;N1</title>
<path fill="none" stroke="black" d="M357.747,-233.621C275.932,-234.585 53.4949,-232.259 8.01893,-180 -7.69913,-161.938 3.85177,-134.938 16.3543,-115.416"/>
<polygon fill="black" stroke="black" points="19.3295,-117.265 22.0711,-107.031 13.5459,-113.321 19.3295,-117.265"/>
</g>
<!-- N2 -->
<g id="node3" class="node"><title>N2</title>
<ellipse fill="none" stroke="black" cx="82.0189" cy="-162" rx="64.4914" ry="18"/>
<text text-anchor="middle" x="82.0189" y="-158.3" font-family="Times,serif" font-size="14.00">docopt_macros</text>
</g>
<!-- N0&#45;&gt;N2 -->
<g id="edge2" class="edge"><title>N0&#45;&gt;N2</title>
<path fill="none" stroke="black" d="M360.161,-226.647C316.602,-216.712 229.717,-196.883 156.019,-180 150.799,-178.804 145.372,-177.56 139.936,-176.312"/>
<polygon fill="black" stroke="black" points="140.712,-172.9 130.182,-174.073 139.146,-179.722 140.712,-172.9"/>
</g>
<!-- N3 -->
<g id="node4" class="node"><title>N3</title>
<ellipse fill="none" stroke="black" cx="196.019" cy="-162" rx="30.3206" ry="18"/>
<text text-anchor="middle" x="196.019" y="-158.3" font-family="Times,serif" font-size="14.00">flate2</text>
</g>
<!-- N0&#45;&gt;N3 -->
<g id="edge3" class="edge"><title>N0&#45;&gt;N3</title>
<path fill="none" stroke="black" d="M362.01,-224.516C331.59,-214.458 279.815,-196.921 236.019,-180 233.679,-179.096 231.271,-178.14 228.854,-177.16"/>
<polygon fill="black" stroke="black" points="230.18,-173.921 219.602,-173.329 227.502,-180.389 230.18,-173.921"/>
</g>
<!-- N4 -->
<g id="node5" class="node"><title>N4</title>
<ellipse fill="none" stroke="black" cx="272.019" cy="-162" rx="27" ry="18"/>
<text text-anchor="middle" x="272.019" y="-158.3" font-family="Times,serif" font-size="14.00">git2</text>
</g>
<!-- N0&#45;&gt;N4 -->
<g id="edge4" class="edge"><title>N0&#45;&gt;N4</title>
<path fill="none" stroke="black" d="M367.547,-220.647C348.851,-209.364 321.036,-192.579 300.235,-180.027"/>
<polygon fill="black" stroke="black" points="301.884,-176.934 291.513,-174.764 298.267,-182.927 301.884,-176.934"/>
</g>
<!-- N5 -->
<g id="node6" class="node"><title>N5</title>
<ellipse fill="none" stroke="black" cx="344.019" cy="-162" rx="27" ry="18"/>
<text text-anchor="middle" x="344.019" y="-158.3" font-family="Times,serif" font-size="14.00">glob</text>
</g>
<!-- N0&#45;&gt;N5 -->
<g id="edge5" class="edge"><title>N0&#45;&gt;N5</title>
<path fill="none" stroke="black" d="M377.814,-216.765C372.427,-208.195 365.701,-197.494 359.671,-187.9"/>
<polygon fill="black" stroke="black" points="362.454,-185.751 354.169,-179.147 356.527,-189.476 362.454,-185.751"/>
</g>
<!-- N6 -->
<g id="node7" class="node"><title>N6</title>
<ellipse fill="none" stroke="black" cx="432.019" cy="-162" rx="42.3456" ry="18"/>
<text text-anchor="middle" x="432.019" y="-158.3" font-family="Times,serif" font-size="14.00">hamcrest</text>
</g>
<!-- N0&#45;&gt;N6 -->
<g id="edge6" class="edge"><title>N0&#45;&gt;N6</title>
<path fill="none" stroke="black" d="M398.224,-216.765C403.534,-208.317 410.145,-197.799 416.108,-188.312"/>
<polygon fill="black" stroke="black" points="419.205,-189.962 421.564,-179.633 413.279,-186.237 419.205,-189.962"/>
</g>
<!-- N7 -->
<g id="node8" class="node"><title>N7</title>
<ellipse fill="none" stroke="black" cx="529.019" cy="-162" rx="36.096" ry="18"/>
<text text-anchor="middle" x="529.019" y="-158.3" font-family="Times,serif" font-size="14.00">semver</text>
</g>
<!-- N0&#45;&gt;N7 -->
<g id="edge7" class="edge"><title>N0&#45;&gt;N7</title>
<path fill="none" stroke="black" d="M410.673,-221.753C433.414,-210.463 468.731,-192.93 494.87,-179.954"/>
<polygon fill="black" stroke="black" points="496.644,-182.98 504.044,-175.399 493.531,-176.711 496.644,-182.98"/>
</g>
<!-- N8 -->
<g id="node9" class="node"><title>N8</title>
<ellipse fill="none" stroke="black" cx="610.019" cy="-162" rx="27" ry="18"/>
<text text-anchor="middle" x="610.019" y="-158.3" font-family="Times,serif" font-size="14.00">tar</text>
</g>
<!-- N0&#45;&gt;N8 -->
<g id="edge8" class="edge"><title>N0&#45;&gt;N8</title>
<path fill="none" stroke="black" d="M415.893,-226.571C452.674,-217.746 519.17,-200.607 574.019,-180 575.863,-179.307 577.743,-178.558 579.627,-177.773"/>
<polygon fill="black" stroke="black" points="581.215,-180.898 588.947,-173.655 578.385,-174.496 581.215,-180.898"/>
</g>
<!-- N9 -->
<g id="node10" class="node"><title>N9</title>
<ellipse fill="none" stroke="black" cx="682.019" cy="-162" rx="26.949" ry="18"/>
<text text-anchor="middle" x="682.019" y="-158.3" font-family="Times,serif" font-size="14.00">toml</text>
</g>
<!-- N0&#45;&gt;N9 -->
<g id="edge9" class="edge"><title>N0&#45;&gt;N9</title>
<path fill="none" stroke="black" d="M417.634,-229.261C466.234,-222.608 565.552,-206.835 646.019,-180 647.937,-179.36 649.886,-178.645 651.835,-177.88"/>
<polygon fill="black" stroke="black" points="653.623,-180.921 661.426,-173.753 650.857,-174.49 653.623,-180.921"/>
</g>
<!-- N10 -->
<g id="node11" class="node"><title>N10</title>
<ellipse fill="none" stroke="black" cx="642.019" cy="-90" rx="27" ry="18"/>
<text text-anchor="middle" x="642.019" y="-86.3" font-family="Times,serif" font-size="14.00">url</text>
</g>
<!-- N0&#45;&gt;N10 -->
<g id="edge10" class="edge"><title>N0&#45;&gt;N10</title>
<path fill="none" stroke="black" d="M418.31,-232.907C492.412,-231.973 679.582,-225.102 718.019,-180 728.397,-167.822 725.42,-158.185 718.019,-144 708.75,-126.237 690.51,-113.212 674.222,-104.52"/>
<polygon fill="black" stroke="black" points="675.452,-101.223 664.94,-99.9003 672.333,-107.49 675.452,-101.223"/>
</g>
<!-- N2&#45;&gt;N1 -->
<g id="edge11" class="edge"><title>N2&#45;&gt;N1</title>
<path fill="none" stroke="black" d="M70.6415,-144.055C64.9593,-135.592 57.9749,-125.19 51.7004,-115.845"/>
<polygon fill="black" stroke="black" points="54.4481,-113.658 45.9679,-107.307 48.6365,-117.56 54.4481,-113.658"/>
</g>
<!-- N4&#45;&gt;N10 -->
<g id="edge13" class="edge"><title>N4&#45;&gt;N10</title>
<path fill="none" stroke="black" d="M292.558,-150.078C297.513,-147.789 302.867,-145.589 308.019,-144 412.761,-111.683 542.372,-98.314 604.869,-93.4442"/>
<polygon fill="black" stroke="black" points="605.314,-96.9207 615.024,-92.6823 604.79,-89.9404 605.314,-96.9207"/>
</g>
<!-- N12 -->
<g id="node13" class="node"><title>N12</title>
<ellipse fill="none" stroke="black" cx="272.019" cy="-90" rx="33.1991" ry="18"/>
<text text-anchor="middle" x="272.019" y="-86.3" font-family="Times,serif" font-size="14.00">libgit2</text>
</g>
<!-- N4&#45;&gt;N12 -->
<g id="edge12" class="edge"><title>N4&#45;&gt;N12</title>
<path fill="none" stroke="black" d="M272.019,-143.697C272.019,-135.983 272.019,-126.712 272.019,-118.112"/>
<polygon fill="black" stroke="black" points="275.519,-118.104 272.019,-108.104 268.519,-118.104 275.519,-118.104"/>
</g>
<!-- N11 -->
<g id="node12" class="node"><title>N11</title>
<ellipse fill="none" stroke="black" cx="642.019" cy="-18" rx="42.3456" ry="18"/>
<text text-anchor="middle" x="642.019" y="-14.3" font-family="Times,serif" font-size="14.00">encoding</text>
</g>
<!-- N10&#45;&gt;N11 -->
<g id="edge17" class="edge"><title>N10&#45;&gt;N11</title>
<path fill="none" stroke="black" d="M642.019,-71.6966C642.019,-63.9827 642.019,-54.7125 642.019,-46.1124"/>
<polygon fill="black" stroke="black" points="645.519,-46.1043 642.019,-36.1043 638.519,-46.1044 645.519,-46.1043"/>
</g>
<!-- N13 -->
<g id="node14" class="node"><title>N13</title>
<ellipse fill="none" stroke="black" cx="132.019" cy="-18" rx="71.2405" ry="18"/>
<text text-anchor="middle" x="132.019" y="-14.3" font-family="Times,serif" font-size="14.00">libssh2&#45;static&#45;sys</text>
</g>
<!-- N12&#45;&gt;N13 -->
<g id="edge14" class="edge"><title>N12&#45;&gt;N13</title>
<path fill="none" stroke="black" d="M248.27,-77.1255C227.379,-66.6799 196.54,-51.2604 171.874,-38.9274"/>
<polygon fill="black" stroke="black" points="173.266,-35.7103 162.756,-34.3686 170.135,-41.9713 173.266,-35.7103"/>
</g>
<!-- N14 -->
<g id="node15" class="node"><title>N14</title>
<ellipse fill="none" stroke="black" cx="272.019" cy="-18" rx="50.0684" ry="18"/>
<text text-anchor="middle" x="272.019" y="-14.3" font-family="Times,serif" font-size="14.00">link&#45;config</text>
</g>
<!-- N12&#45;&gt;N14 -->
<g id="edge15" class="edge"><title>N12&#45;&gt;N14</title>
<path fill="none" stroke="black" d="M272.019,-71.6966C272.019,-63.9827 272.019,-54.7125 272.019,-46.1124"/>
<polygon fill="black" stroke="black" points="275.519,-46.1043 272.019,-36.1043 268.519,-46.1044 275.519,-46.1043"/>
</g>
<!-- N15 -->
<g id="node16" class="node"><title>N15</title>
<ellipse fill="none" stroke="black" cx="413.019" cy="-18" rx="72.192" ry="18"/>
<text text-anchor="middle" x="413.019" y="-14.3" font-family="Times,serif" font-size="14.00">openssl&#45;static&#45;sys</text>
</g>
<!-- N12&#45;&gt;N15 -->
<g id="edge16" class="edge"><title>N12&#45;&gt;N15</title>
<path fill="none" stroke="black" d="M295.938,-77.1255C316.978,-66.6799 348.037,-51.2604 372.879,-38.9274"/>
<polygon fill="black" stroke="black" points="374.662,-41.9503 382.062,-34.3686 371.549,-35.6804 374.662,-41.9503"/>
</g>
</g>
</svg>
