<?xml version="1.0" encoding="UTF-8" standalone="no"?>
<!DOCTYPE svg PUBLIC "-//W3C//DTD SVG 1.1//EN"
 "http://www.w3.org/Graphics/SVG/1.1/DTD/svg11.dtd">
<!-- Generated by graphviz version 2.34.0 (20140110.0949)
 -->
<!-- Title: example3 Pages: 1 -->
<svg width="2659pt" height="692pt"
 viewBox="0.00 0.00 2659.13 692.00" xmlns="http://www.w3.org/2000/svg" xmlns:xlink="http://www.w3.org/1999/xlink">
<g id="graph0" class="graph" transform="scale(1 1) rotate(0) translate(4 688)">
<title>example3</title>
<polygon fill="white" stroke="white" points="-4,4 -4,-688 2655.13,-688 2655.13,4 -4,4"/>
<!-- N0 -->
<g id="node1" class="node"><title>N0</title>
<ellipse fill="none" stroke="black" cx="1333.13" cy="-666" rx="29.3479" ry="18"/>
<text text-anchor="middle" x="1333.13" y="-662.3" font-family="Times,serif" font-size="14.00">servo</text>
</g>
<!-- N1 -->
<g id="node2" class="node"><title>N1</title>
<ellipse fill="none" stroke="black" cx="869.125" cy="-594" rx="54.3924" ry="18"/>
<text text-anchor="middle" x="869.125" y="-590.3" font-family="Times,serif" font-size="14.00">compositing</text>
</g>
<!-- N0&#45;&gt;N1 -->
<g id="edge1" class="edge"><title>N0&#45;&gt;N1</title>
<path fill="none" stroke="black" d="M1304.8,-660.727C1230.32,-649.491 1027.86,-618.948 927.348,-603.784"/>
<polygon fill="black" stroke="black" points="927.772,-600.308 917.362,-602.277 926.728,-607.23 927.772,-600.308"/>
</g>
<!-- N2 -->
<g id="node3" class="node"><title>N2</title>
<ellipse fill="none" stroke="black" cx="948.125" cy="-450" rx="27" ry="18"/>
<text text-anchor="middle" x="948.125" y="-446.3" font-family="Times,serif" font-size="14.00">gfx</text>
</g>
<!-- N0&#45;&gt;N2 -->
<g id="edge2" class="edge"><title>N0&#45;&gt;N2</title>
<path fill="none" stroke="black" d="M1306.34,-658.221C1274.88,-649.713 1221.6,-633.58 1179.13,-612 1097.95,-570.76 1012.62,-504.307 972.147,-471.157"/>
<polygon fill="black" stroke="black" points="974.151,-468.273 964.209,-464.61 969.697,-473.673 974.151,-468.273"/>
</g>
<!-- N3 -->
<g id="node4" class="node"><title>N3</title>
<ellipse fill="none" stroke="black" cx="1695.13" cy="-594" rx="32.2457" ry="18"/>
<text text-anchor="middle" x="1695.13" y="-590.3" font-family="Times,serif" font-size="14.00">layout</text>
</g>
<!-- N0&#45;&gt;N3 -->
<g id="edge3" class="edge"><title>N0&#45;&gt;N3</title>
<path fill="none" stroke="black" d="M1360.93,-659.623C1424.65,-647.301 1581.43,-616.985 1655.35,-602.692"/>
<polygon fill="black" stroke="black" points="1656.05,-606.12 1665.21,-600.785 1654.72,-599.248 1656.05,-606.12"/>
</g>
<!-- N4 -->
<g id="node5" class="node"><title>N4</title>
<ellipse fill="none" stroke="black" cx="1177.13" cy="-378" rx="27" ry="18"/>
<text text-anchor="middle" x="1177.13" y="-374.3" font-family="Times,serif" font-size="14.00">msg</text>
</g>
<!-- N0&#45;&gt;N4 -->
<g id="edge4" class="edge"><title>N0&#45;&gt;N4</title>
<path fill="none" stroke="black" d="M1314.7,-651.51C1287.73,-630.725 1237.93,-588.194 1212.13,-540 1189.08,-496.954 1181.2,-439.729 1178.52,-406.374"/>
<polygon fill="black" stroke="black" points="1181.98,-405.762 1177.79,-396.032 1175,-406.253 1181.98,-405.762"/>
</g>
<!-- N5 -->
<g id="node6" class="node"><title>N5</title>
<ellipse fill="none" stroke="black" cx="1530.13" cy="-378" rx="27" ry="18"/>
<text text-anchor="middle" x="1530.13" y="-374.3" font-family="Times,serif" font-size="14.00">net</text>
</g>
<!-- N0&#45;&gt;N5 -->
<g id="edge5" class="edge"><title>N0&#45;&gt;N5</title>
<path fill="none" stroke="black" d="M1362.35,-663.469C1397.46,-659.978 1455.58,-648.638 1487.13,-612 1537.92,-553.008 1537.11,-453.895 1533.24,-406.224"/>
<polygon fill="black" stroke="black" points="1536.71,-405.7 1532.3,-396.064 1529.74,-406.344 1536.71,-405.7"/>
</g>
<!-- N6 -->
<g id="node7" class="node"><title>N6</title>
<ellipse fill="none" stroke="black" cx="462.125" cy="-306" rx="27" ry="18"/>
<text text-anchor="middle" x="462.125" y="-302.3" font-family="Times,serif" font-size="14.00">png</text>
</g>
<!-- N0&#45;&gt;N6 -->
<g id="edge6" class="edge"><title>N0&#45;&gt;N6</title>
<path fill="none" stroke="black" d="M1303.73,-663.635C1145.26,-655.977 397.4,-615.962 332.125,-540 272.09,-470.135 383.771,-368.215 436.615,-326.199"/>
<polygon fill="black" stroke="black" points="438.838,-328.904 444.556,-319.984 434.524,-323.392 438.838,-328.904"/>
</g>
<!-- N7 -->
<g id="node8" class="node"><title>N7</title>
<ellipse fill="none" stroke="black" cx="1982.13" cy="-522" rx="30.3206" ry="18"/>
<text text-anchor="middle" x="1982.13" y="-518.3" font-family="Times,serif" font-size="14.00">script</text>
</g>
<!-- N0&#45;&gt;N7 -->
<g id="edge7" class="edge"><title>N0&#45;&gt;N7</title>
<path fill="none" stroke="black" d="M1362.35,-663.298C1429.29,-658.936 1598.6,-645.27 1736.13,-612 1814.64,-593.006 1902.79,-557.448 1949.3,-537.508"/>
<polygon fill="black" stroke="black" points="1950.78,-540.681 1958.57,-533.502 1948,-534.255 1950.78,-540.681"/>
</g>
<!-- N8 -->
<g id="node9" class="node"><title>N8</title>
<ellipse fill="none" stroke="black" cx="1530.13" cy="-306" rx="27" ry="18"/>
<text text-anchor="middle" x="1530.13" y="-302.3" font-family="Times,serif" font-size="14.00">util</text>
</g>
<!-- N0&#45;&gt;N8 -->
<g id="edge8" class="edge"><title>N0&#45;&gt;N8</title>
<path fill="none" stroke="black" d="M1341.05,-648.447C1363.46,-602.025 1429.81,-467.002 1494.13,-360 1499.97,-350.275 1506.87,-339.886 1513.06,-330.906"/>
<polygon fill="black" stroke="black" points="1516.09,-332.675 1518.95,-322.472 1510.35,-328.669 1516.09,-332.675"/>
</g>
<!-- N1&#45;&gt;N2 -->
<g id="edge29" class="edge"><title>N1&#45;&gt;N2</title>
<path fill="none" stroke="black" d="M878.498,-576.153C892.231,-551.468 917.928,-505.279 933.97,-476.444"/>
<polygon fill="black" stroke="black" points="937.206,-477.827 939.009,-467.387 931.089,-474.424 937.206,-477.827"/>
</g>
<!-- N1&#45;&gt;N4 -->
<g id="edge34" class="edge"><title>N1&#45;&gt;N4</title>
<path fill="none" stroke="black" d="M891.524,-577.437C947.089,-538.83 1091.07,-438.795 1150.68,-397.376"/>
<polygon fill="black" stroke="black" points="1152.95,-400.057 1159.17,-391.476 1148.96,-394.308 1152.95,-400.057"/>
</g>
<!-- N1&#45;&gt;N5 -->
<g id="edge35" class="edge"><title>N1&#45;&gt;N5</title>
<path fill="none" stroke="black" d="M923.023,-591.541C1030.48,-587.889 1267.22,-575.905 1339.13,-540 1358.81,-530.168 1356.92,-518.891 1373.13,-504 1385.19,-492.917 1464.24,-430.671 1505.36,-398.405"/>
<polygon fill="black" stroke="black" points="1507.58,-401.115 1513.28,-392.19 1503.26,-395.607 1507.58,-401.115"/>
</g>
<!-- N1&#45;&gt;N6 -->
<g id="edge37" class="edge"><title>N1&#45;&gt;N6</title>
<path fill="none" stroke="black" d="M815.83,-589.891C764.89,-584.997 687.308,-572.404 628.125,-540 548.736,-496.533 528.615,-474.82 484.125,-396 473.334,-376.882 467.785,-352.529 464.961,-334.132"/>
<polygon fill="black" stroke="black" points="468.409,-333.511 463.595,-324.073 461.473,-334.453 468.409,-333.511"/>
</g>
<!-- N1&#45;&gt;N8 -->
<g id="edge40" class="edge"><title>N1&#45;&gt;N8</title>
<path fill="none" stroke="black" d="M918.196,-586.159C964.573,-578.598 1035.44,-564.173 1093.13,-540 1204.01,-493.531 1227.14,-469.7 1322.13,-396 1340.51,-381.739 1339.83,-371.366 1360.13,-360 1413.93,-329.873 1436.24,-345.251 1494.13,-324 1495.97,-323.321 1497.86,-322.583 1499.75,-321.807"/>
<polygon fill="black" stroke="black" points="1501.33,-324.936 1509.07,-317.71 1498.51,-318.526 1501.33,-324.936"/>
</g>
<!-- N9 -->
<g id="node10" class="node"><title>N9</title>
<ellipse fill="none" stroke="black" cx="137.125" cy="-522" rx="27" ry="18"/>
<text text-anchor="middle" x="137.125" y="-518.3" font-family="Times,serif" font-size="14.00">alert</text>
</g>
<!-- N1&#45;&gt;N9 -->
<g id="edge24" class="edge"><title>N1&#45;&gt;N9</title>
<path fill="none" stroke="black" d="M815.459,-590.809C704.052,-585.778 439.758,-571.344 220.125,-540 204.153,-537.721 186.631,-534.274 171.819,-531.078"/>
<polygon fill="black" stroke="black" points="172.569,-527.659 162.05,-528.923 171.061,-534.495 172.569,-527.659"/>
</g>
<!-- N12 -->
<g id="node13" class="node"><title>N12</title>
<ellipse fill="none" stroke="black" cx="819.125" cy="-234" rx="29.3479" ry="18"/>
<text text-anchor="middle" x="819.125" y="-230.3" font-family="Times,serif" font-size="14.00">azure</text>
</g>
<!-- N1&#45;&gt;N12 -->
<g id="edge25" class="edge"><title>N1&#45;&gt;N12</title>
<path fill="none" stroke="black" d="M842.967,-578.226C795.974,-549.975 698.667,-483.264 661.125,-396 631.998,-328.295 731.089,-273.124 785.619,-248.65"/>
<polygon fill="black" stroke="black" points="787.165,-251.794 794.922,-244.578 784.358,-245.382 787.165,-251.794"/>
</g>
<!-- N13 -->
<g id="node14" class="node"><title>N13</title>
<ellipse fill="none" stroke="black" cx="166.125" cy="-90" rx="59.1941" ry="18"/>
<text text-anchor="middle" x="166.125" y="-86.3" font-family="Times,serif" font-size="14.00">core_graphics</text>
</g>
<!-- N1&#45;&gt;N13 -->
<g id="edge26" class="edge"><title>N1&#45;&gt;N13</title>
<path fill="none" stroke="black" d="M815.539,-590.811C719.182,-586.101 521.115,-572.659 461.125,-540 287.513,-445.482 199.173,-199.729 173.906,-117.928"/>
<polygon fill="black" stroke="black" points="177.256,-116.913 171.008,-108.356 170.556,-118.942 177.256,-116.913"/>
</g>
<!-- N14 -->
<g id="node15" class="node"><title>N14</title>
<ellipse fill="none" stroke="black" cx="295.125" cy="-162" rx="43.319" ry="18"/>
<text text-anchor="middle" x="295.125" y="-158.3" font-family="Times,serif" font-size="14.00">core_text</text>
</g>
<!-- N1&#45;&gt;N14 -->
<g id="edge27" class="edge"><title>N1&#45;&gt;N14</title>
<path fill="none" stroke="black" d="M816.063,-590.175C729.21,-584.728 561.326,-570.513 511.125,-540 377.771,-458.945 318.888,-262.69 301.202,-190.36"/>
<polygon fill="black" stroke="black" points="304.513,-189.155 298.799,-180.233 297.702,-190.771 304.513,-189.155"/>
</g>
<!-- N17 -->
<g id="node18" class="node"><title>N17</title>
<ellipse fill="none" stroke="black" cx="1396.13" cy="-18" rx="30.3206" ry="18"/>
<text text-anchor="middle" x="1396.13" y="-14.3" font-family="Times,serif" font-size="14.00">geom</text>
</g>
<!-- N1&#45;&gt;N17 -->
<g id="edge28" class="edge"><title>N1&#45;&gt;N17</title>
<path fill="none" stroke="black" d="M906.116,-580.807C975.266,-556.286 1125.07,-494.755 1213.13,-396 1295.94,-303.124 1280.73,-255.915 1335.13,-144 1351.81,-109.681 1371.14,-70.1013 1383.49,-44.8326"/>
<polygon fill="black" stroke="black" points="1386.77,-46.0932 1388.02,-35.5721 1380.48,-43.0184 1386.77,-46.0932"/>
</g>
<!-- N18 -->
<g id="node19" class="node"><title>N18</title>
<ellipse fill="none" stroke="black" cx="460.125" cy="-162" rx="27" ry="18"/>
<text text-anchor="middle" x="460.125" y="-158.3" font-family="Times,serif" font-size="14.00">glfw</text>
</g>
<!-- N1&#45;&gt;N18 -->
<g id="edge30" class="edge"><title>N1&#45;&gt;N18</title>
<path fill="none" stroke="black" d="M817.715,-588.053C743.165,-580.2 609.343,-563.343 567.125,-540 466.797,-484.526 462.037,-432.873 426.125,-324 411.012,-278.18 398.492,-261.29 415.125,-216 419.567,-203.906 428.127,-192.684 436.6,-183.709"/>
<polygon fill="black" stroke="black" points="439.293,-185.967 443.917,-176.434 434.358,-181.003 439.293,-185.967"/>
</g>
<!-- N19 -->
<g id="node20" class="node"><title>N19</title>
<ellipse fill="none" stroke="black" cx="1075.13" cy="-162" rx="31.2735" ry="18"/>
<text text-anchor="middle" x="1075.13" y="-158.3" font-family="Times,serif" font-size="14.00">layers</text>
</g>
<!-- N1&#45;&gt;N19 -->
<g id="edge32" class="edge"><title>N1&#45;&gt;N19</title>
<path fill="none" stroke="black" d="M871.065,-575.792C876.878,-528.241 896.644,-391.716 942.125,-288 957.376,-253.223 960.989,-242.563 988.125,-216 1003.69,-200.76 1024.43,-187.914 1041.75,-178.688"/>
<polygon fill="black" stroke="black" points="1043.67,-181.632 1050.96,-173.942 1040.47,-175.408 1043.67,-181.632"/>
</g>
<!-- N20 -->
<g id="node21" class="node"><title>N20</title>
<ellipse fill="none" stroke="black" cx="254.125" cy="-18" rx="42.3701" ry="18"/>
<text text-anchor="middle" x="254.125" y="-14.3" font-family="Times,serif" font-size="14.00">opengles</text>
</g>
<!-- N1&#45;&gt;N20 -->
<g id="edge36" class="edge"><title>N1&#45;&gt;N20</title>
<path fill="none" stroke="black" d="M814.872,-593.225C637.989,-593.467 85.8657,-590.163 25.1253,-540 -6.37597,-513.985 2.12532,-491.855 2.12532,-451 2.12532,-451 2.12532,-451 2.12532,-161 2.12532,-118.162 6.61792,-99.8986 39.1253,-72 84.5141,-33.0464 154.145,-21.8648 201.787,-19.0863"/>
<polygon fill="black" stroke="black" points="202.08,-22.5764 211.901,-18.6027 201.745,-15.5844 202.08,-22.5764"/>
</g>
<!-- N24 -->
<g id="node25" class="node"><title>N24</title>
<ellipse fill="none" stroke="black" cx="61.1253" cy="-522" rx="27" ry="18"/>
<text text-anchor="middle" x="61.1253" y="-518.3" font-family="Times,serif" font-size="14.00">glut</text>
</g>
<!-- N1&#45;&gt;N24 -->
<g id="edge31" class="edge"><title>N1&#45;&gt;N24</title>
<path fill="none" stroke="black" d="M815.248,-591.606C663.9,-587.321 237.101,-572.611 101.125,-540 98.0688,-539.267 94.9479,-538.322 91.8644,-537.254"/>
<polygon fill="black" stroke="black" points="92.8566,-533.885 82.2677,-533.531 90.3248,-540.411 92.8566,-533.885"/>
</g>
<!-- N25 -->
<g id="node26" class="node"><title>N25</title>
<ellipse fill="none" stroke="black" cx="1276.13" cy="-522" rx="54.3924" ry="18"/>
<text text-anchor="middle" x="1276.13" y="-518.3" font-family="Times,serif" font-size="14.00">layout_traits</text>
</g>
<!-- N1&#45;&gt;N25 -->
<g id="edge33" class="edge"><title>N1&#45;&gt;N25</title>
<path fill="none" stroke="black" d="M916.211,-584.902C991.36,-571.977 1138.17,-546.727 1219.13,-532.802"/>
<polygon fill="black" stroke="black" points="1219.89,-536.224 1229.15,-531.079 1218.7,-529.325 1219.89,-536.224"/>
</g>
<!-- N26 -->
<g id="node27" class="node"><title>N26</title>
<ellipse fill="none" stroke="black" cx="1615.13" cy="-450" rx="51.4931" ry="18"/>
<text text-anchor="middle" x="1615.13" y="-446.3" font-family="Times,serif" font-size="14.00">script_traits</text>
</g>
<!-- N1&#45;&gt;N26 -->
<g id="edge38" class="edge"><title>N1&#45;&gt;N26</title>
<path fill="none" stroke="black" d="M922.956,-590.955C1035.54,-586.093 1292.15,-571.793 1373.13,-540 1397.95,-530.254 1397.17,-515.721 1421.13,-504 1465.36,-482.354 1519.74,-468.472 1559.66,-460.369"/>
<polygon fill="black" stroke="black" points="1560.35,-463.8 1569.48,-458.432 1559,-456.933 1560.35,-463.8"/>
</g>
<!-- N27 -->
<g id="node28" class="node"><title>N27</title>
<ellipse fill="none" stroke="black" cx="1857.13" cy="-234" rx="27" ry="18"/>
<text text-anchor="middle" x="1857.13" y="-230.3" font-family="Times,serif" font-size="14.00">url</text>
</g>
<!-- N1&#45;&gt;N27 -->
<g id="edge39" class="edge"><title>N1&#45;&gt;N27</title>
<path fill="none" stroke="black" d="M922.624,-590.764C1020.35,-586.018 1233.99,-572.575 1411.13,-540 1530.74,-518.004 1569.22,-527.792 1675.13,-468 1755.88,-422.408 1775.91,-401.967 1826.13,-324 1838.4,-304.938 1846.47,-280.434 1851.29,-261.966"/>
<polygon fill="black" stroke="black" points="1854.72,-262.684 1853.7,-252.138 1847.92,-261.017 1854.72,-262.684"/>
</g>
<!-- N2&#45;&gt;N4 -->
<g id="edge58" class="edge"><title>N2&#45;&gt;N4</title>
<path fill="none" stroke="black" d="M970.022,-439.196C976.134,-436.659 982.828,-434.063 989.125,-432 1053.05,-411.057 1072.2,-416.943 1136.13,-396 1139.27,-394.968 1142.52,-393.804 1145.75,-392.58"/>
<polygon fill="black" stroke="black" points="1147.23,-395.755 1155.23,-388.804 1144.64,-389.252 1147.23,-395.755"/>
</g>
<!-- N2&#45;&gt;N5 -->
<g id="edge59" class="edge"><title>N2&#45;&gt;N5</title>
<path fill="none" stroke="black" d="M974.645,-445.81C1068.58,-434.512 1385.64,-396.377 1493.7,-383.381"/>
<polygon fill="black" stroke="black" points="1494.27,-386.837 1503.78,-382.168 1493.44,-379.888 1494.27,-386.837"/>
</g>
<!-- N2&#45;&gt;N6 -->
<g id="edge60" class="edge"><title>N2&#45;&gt;N6</title>
<path fill="none" stroke="black" d="M920.958,-448.512C837.999,-446.579 589.525,-437.388 522.125,-396 498.409,-381.437 481.944,-353.575 472.341,-332.888"/>
<polygon fill="black" stroke="black" points="475.522,-331.426 468.293,-323.68 469.114,-334.243 475.522,-331.426"/>
</g>
<!-- N2&#45;&gt;N8 -->
<g id="edge64" class="edge"><title>N2&#45;&gt;N8</title>
<path fill="none" stroke="black" d="M975.075,-447.98C1024.58,-445.182 1132.32,-434.753 1213.13,-396 1235.6,-385.221 1233.4,-370.244 1256.13,-360 1353.65,-316.029 1391.79,-355.17 1494.13,-324 1496.06,-323.411 1498.02,-322.735 1499.98,-321.999"/>
<polygon fill="black" stroke="black" points="1501.74,-325.056 1509.59,-317.949 1499.02,-318.605 1501.74,-325.056"/>
</g>
<!-- N11 -->
<g id="node12" class="node"><title>N11</title>
<ellipse fill="none" stroke="black" cx="547.125" cy="-18" rx="68.3664" ry="18"/>
<text text-anchor="middle" x="547.125" y="-14.3" font-family="Times,serif" font-size="14.00">core_foundation</text>
</g>
<!-- N2&#45;&gt;N11 -->
<g id="edge49" class="edge"><title>N2&#45;&gt;N11</title>
<path fill="none" stroke="black" d="M920.999,-447.236C857.412,-442.601 701.102,-428.152 661.125,-396 551.372,-307.729 544.433,-117.436 545.911,-46.4439"/>
<polygon fill="black" stroke="black" points="549.419,-46.2041 546.206,-36.1083 542.422,-46.0043 549.419,-46.2041"/>
</g>
<!-- N2&#45;&gt;N12 -->
<g id="edge48" class="edge"><title>N2&#45;&gt;N12</title>
<path fill="none" stroke="black" d="M931.009,-435.828C918.957,-425.886 903.081,-411.369 892.125,-396 861.451,-352.969 839.015,-294.988 827.612,-261.634"/>
<polygon fill="black" stroke="black" points="830.921,-260.492 824.43,-252.118 824.282,-262.712 830.921,-260.492"/>
</g>
<!-- N2&#45;&gt;N13 -->
<g id="edge50" class="edge"><title>N2&#45;&gt;N13</title>
<path fill="none" stroke="black" d="M921.116,-448.663C828.76,-447.132 526.547,-438.882 441.125,-396 374.961,-362.785 235.169,-182.74 184.75,-115.95"/>
<polygon fill="black" stroke="black" points="187.323,-113.549 178.514,-107.663 181.73,-117.758 187.323,-113.549"/>
</g>
<!-- N2&#45;&gt;N14 -->
<g id="edge51" class="edge"><title>N2&#45;&gt;N14</title>
<path fill="none" stroke="black" d="M921.204,-448.563C833.964,-446.742 560.286,-437.756 484.125,-396 438.482,-370.975 348.901,-242.996 311.815,-188.08"/>
<polygon fill="black" stroke="black" points="314.61,-185.964 306.125,-179.619 308.8,-189.87 314.61,-185.964"/>
</g>
<!-- N16 -->
<g id="node17" class="node"><title>N16</title>
<ellipse fill="none" stroke="black" cx="813.125" cy="-162" rx="39.4691" ry="18"/>
<text text-anchor="middle" x="813.125" y="-158.3" font-family="Times,serif" font-size="14.00">freetype</text>
</g>
<!-- N2&#45;&gt;N16 -->
<g id="edge53" class="edge"><title>N2&#45;&gt;N16</title>
<path fill="none" stroke="black" d="M926.966,-438.596C909.428,-429.22 884.627,-414.142 867.125,-396 815.211,-342.186 800.195,-324.03 780.125,-252 775.831,-236.587 775.727,-231.384 780.125,-216 783,-205.945 788.395,-195.94 794.003,-187.377"/>
<polygon fill="black" stroke="black" points="796.973,-189.236 799.827,-179.033 791.233,-185.23 796.973,-189.236"/>
</g>
<!-- N2&#45;&gt;N17 -->
<g id="edge54" class="edge"><title>N2&#45;&gt;N17</title>
<path fill="none" stroke="black" d="M947.619,-431.777C947.808,-412.95 950.344,-382.474 963.125,-360 1048.7,-209.519 1132.01,-224.428 1260.13,-108 1277.1,-92.569 1278.61,-85.5472 1297.13,-72 1317.68,-56.9636 1343.03,-43.4729 1362.94,-33.8654"/>
<polygon fill="black" stroke="black" points="1364.68,-36.9115 1372.23,-29.4712 1361.69,-30.5838 1364.68,-36.9115"/>
</g>
<!-- N2&#45;&gt;N19 -->
<g id="edge56" class="edge"><title>N2&#45;&gt;N19</title>
<path fill="none" stroke="black" d="M939.843,-432.626C931.834,-414.542 922.011,-384.713 930.125,-360 954.142,-286.854 1016.86,-218.512 1051.42,-184.853"/>
<polygon fill="black" stroke="black" points="1053.96,-187.271 1058.75,-177.824 1049.11,-182.219 1053.96,-187.271"/>
</g>
<!-- N2&#45;&gt;N27 -->
<g id="edge63" class="edge"><title>N2&#45;&gt;N27</title>
<path fill="none" stroke="black" d="M971.762,-441.255C996.254,-432.556 1034.96,-416.878 1064.13,-396 1082.02,-383.19 1079.39,-371.543 1098.13,-360 1374.75,-189.588 1506.97,-334.855 1821.13,-252 1823.3,-251.427 1825.5,-250.726 1827.69,-249.938"/>
<polygon fill="black" stroke="black" points="1829.16,-253.117 1837.06,-246.058 1826.48,-246.649 1829.16,-253.117"/>
</g>
<!-- N31 -->
<g id="node32" class="node"><title>N31</title>
<ellipse fill="none" stroke="black" cx="717.125" cy="-378" rx="47.169" ry="18"/>
<text text-anchor="middle" x="717.125" y="-374.3" font-family="Times,serif" font-size="14.00">fontconfig</text>
</g>
<!-- N2&#45;&gt;N31 -->
<g id="edge52" class="edge"><title>N2&#45;&gt;N31</title>
<path fill="none" stroke="black" d="M923.841,-441.641C885.694,-430.082 811.102,-407.478 762.728,-392.819"/>
<polygon fill="black" stroke="black" points="763.709,-389.459 753.124,-389.909 761.679,-396.158 763.709,-389.459"/>
</g>
<!-- N34 -->
<g id="node35" class="node"><title>N34</title>
<ellipse fill="none" stroke="black" cx="1014.13" cy="-378" rx="41.394" ry="18"/>
<text text-anchor="middle" x="1014.13" y="-374.3" font-family="Times,serif" font-size="14.00">harfbuzz</text>
</g>
<!-- N2&#45;&gt;N34 -->
<g id="edge55" class="edge"><title>N2&#45;&gt;N34</title>
<path fill="none" stroke="black" d="M962.122,-434.155C970.891,-424.854 982.377,-412.673 992.322,-402.124"/>
<polygon fill="black" stroke="black" points="994.918,-404.474 999.231,-394.797 989.825,-399.672 994.918,-404.474"/>
</g>
<!-- N35 -->
<g id="node36" class="node"><title>N35</title>
<ellipse fill="none" stroke="black" cx="2118.13" cy="-306" rx="36.096" ry="18"/>
<text text-anchor="middle" x="2118.13" y="-302.3" font-family="Times,serif" font-size="14.00">macros</text>
</g>
<!-- N2&#45;&gt;N35 -->
<g id="edge57" class="edge"><title>N2&#45;&gt;N35</title>
<path fill="none" stroke="black" d="M974.097,-444.467C1068.07,-428.114 1390.3,-372.458 1494.13,-360 1699.93,-335.304 1752.71,-343.021 1959.13,-324 1997.5,-320.464 2041,-315.765 2072.8,-312.203"/>
<polygon fill="black" stroke="black" points="2073.56,-315.639 2083.1,-311.042 2072.77,-308.683 2073.56,-315.639"/>
</g>
<!-- N36 -->
<g id="node37" class="node"><title>N36</title>
<ellipse fill="none" stroke="black" cx="1438.13" cy="-306" rx="47.169" ry="18"/>
<text text-anchor="middle" x="1438.13" y="-302.3" font-family="Times,serif" font-size="14.00">stb_image</text>
</g>
<!-- N2&#45;&gt;N36 -->
<g id="edge61" class="edge"><title>N2&#45;&gt;N36</title>
<path fill="none" stroke="black" d="M970.136,-439.522C976.249,-436.986 982.914,-434.31 989.125,-432 1036.94,-414.217 1053.55,-420.817 1098.13,-396 1119.9,-383.876 1118.54,-370.544 1141.13,-360 1146.66,-357.414 1302.11,-330.407 1385.85,-315.978"/>
<polygon fill="black" stroke="black" points="1386.68,-319.387 1395.94,-314.24 1385.49,-312.488 1386.68,-319.387"/>
</g>
<!-- N37 -->
<g id="node38" class="node"><title>N37</title>
<ellipse fill="none" stroke="black" cx="2016.13" cy="-378" rx="26.949" ry="18"/>
<text text-anchor="middle" x="2016.13" y="-374.3" font-family="Times,serif" font-size="14.00">style</text>
</g>
<!-- N2&#45;&gt;N37 -->
<g id="edge62" class="edge"><title>N2&#45;&gt;N37</title>
<path fill="none" stroke="black" d="M975.06,-447.235C1120.43,-437.706 1811.08,-392.439 1979.18,-381.421"/>
<polygon fill="black" stroke="black" points="1979.51,-384.907 1989.26,-380.761 1979.06,-377.922 1979.51,-384.907"/>
</g>
<!-- N3&#45;&gt;N2 -->
<g id="edge83" class="edge"><title>N3&#45;&gt;N2</title>
<path fill="none" stroke="black" d="M1663.09,-591.871C1585.08,-588.608 1379.35,-576.907 1212.13,-540 1126.18,-521.032 1029.03,-484.063 980.031,-464.267"/>
<polygon fill="black" stroke="black" points="981.19,-460.959 970.608,-460.431 978.551,-467.443 981.19,-460.959"/>
</g>
<!-- N3&#45;&gt;N5 -->
<g id="edge86" class="edge"><title>N3&#45;&gt;N5</title>
<path fill="none" stroke="black" d="M1674.19,-580.228C1643.19,-560.214 1585.38,-518.481 1554.13,-468 1542.5,-449.233 1536.44,-424.853 1533.32,-406.356"/>
<polygon fill="black" stroke="black" points="1536.74,-405.602 1531.8,-396.232 1529.82,-406.641 1536.74,-405.602"/>
</g>
<!-- N3&#45;&gt;N7 -->
<g id="edge87" class="edge"><title>N3&#45;&gt;N7</title>
<path fill="none" stroke="black" d="M1725.67,-587.788C1771.92,-579.564 1862.29,-562.203 1937.13,-540 1940.7,-538.94 1944.39,-537.733 1948.06,-536.462"/>
<polygon fill="black" stroke="black" points="1949.38,-539.706 1957.59,-533.008 1946.99,-533.125 1949.38,-539.706"/>
</g>
<!-- N3&#45;&gt;N8 -->
<g id="edge91" class="edge"><title>N3&#45;&gt;N8</title>
<path fill="none" stroke="black" d="M1696.86,-575.822C1699.16,-545.014 1700.38,-479.182 1675.13,-432 1648.6,-382.449 1593.85,-343.819 1559.74,-323.302"/>
<polygon fill="black" stroke="black" points="1561.1,-320.044 1550.7,-318.002 1557.56,-326.081 1561.1,-320.044"/>
</g>
<!-- N3&#45;&gt;N17 -->
<g id="edge82" class="edge"><title>N3&#45;&gt;N17</title>
<path fill="none" stroke="black" d="M1701.36,-576.064C1704.87,-565.781 1708.96,-552.306 1711.13,-540 1736.14,-397.964 1703.87,-357.994 1729.13,-216 1732.06,-199.528 1737.65,-196.547 1740.13,-180 1742.49,-164.176 1744.14,-159.488 1740.13,-144 1730.94,-108.564 1729.96,-93.2147 1700.13,-72 1658.3,-42.2597 1508.83,-27.3502 1436.24,-21.7297"/>
<polygon fill="black" stroke="black" points="1436.35,-18.2278 1426.12,-20.9671 1435.82,-25.208 1436.35,-18.2278"/>
</g>
<!-- N3&#45;&gt;N25 -->
<g id="edge84" class="edge"><title>N3&#45;&gt;N25</title>
<path fill="none" stroke="black" d="M1664.65,-587.909C1595.11,-576.292 1423.78,-547.668 1333.66,-532.612"/>
<polygon fill="black" stroke="black" points="1334.05,-529.129 1323.61,-530.934 1332.9,-536.034 1334.05,-529.129"/>
</g>
<!-- N3&#45;&gt;N26 -->
<g id="edge88" class="edge"><title>N3&#45;&gt;N26</title>
<path fill="none" stroke="black" d="M1685.95,-576.711C1672.17,-552.257 1646.02,-505.834 1629.64,-476.759"/>
<polygon fill="black" stroke="black" points="1632.65,-474.973 1624.69,-467.979 1626.55,-478.409 1632.65,-474.973"/>
</g>
<!-- N3&#45;&gt;N27 -->
<g id="edge90" class="edge"><title>N3&#45;&gt;N27</title>
<path fill="none" stroke="black" d="M1727.49,-591.94C1850.45,-587.713 2288.46,-570.781 2424.13,-540 2529.81,-516.022 2651.13,-559.366 2651.13,-451 2651.13,-451 2651.13,-451 2651.13,-377 2651.13,-332.268 2641.59,-312.435 2604.13,-288 2544.3,-248.983 2036.75,-237.897 1894.22,-235.54"/>
<polygon fill="black" stroke="black" points="1894.27,-232.041 1884.22,-235.379 1894.16,-239.04 1894.27,-232.041"/>
</g>
<!-- N3&#45;&gt;N35 -->
<g id="edge85" class="edge"><title>N3&#45;&gt;N35</title>
<path fill="none" stroke="black" d="M1727.69,-592.274C1868.34,-588.554 2422.68,-567.697 2559.13,-468 2599.87,-438.232 2628.14,-397.271 2594.13,-360 2564.57,-327.61 2244.5,-330.409 2201.13,-324 2187.81,-322.032 2173.4,-319.298 2160.39,-316.598"/>
<polygon fill="black" stroke="black" points="2160.81,-313.109 2150.3,-314.454 2159.35,-319.956 2160.81,-313.109"/>
</g>
<!-- N3&#45;&gt;N37 -->
<g id="edge89" class="edge"><title>N3&#45;&gt;N37</title>
<path fill="none" stroke="black" d="M1718.93,-581.836C1723.3,-579.85 1727.83,-577.833 1732.13,-576 1772.12,-558.914 1785.73,-562.212 1823.13,-540 1891.55,-499.359 1960.43,-434.911 1994.4,-401.204"/>
<polygon fill="black" stroke="black" points="1997.28,-403.267 2001.87,-393.718 1992.33,-398.32 1997.28,-403.267"/>
</g>
<!-- N4&#45;&gt;N8 -->
<g id="edge103" class="edge"><title>N4&#45;&gt;N8</title>
<path fill="none" stroke="black" d="M1198.46,-366.909C1204.68,-364.309 1211.57,-361.752 1218.13,-360 1337.63,-328.033 1375.43,-358.833 1494.13,-324 1496.07,-323.431 1498.03,-322.77 1499.99,-322.045"/>
<polygon fill="black" stroke="black" points="1501.74,-325.109 1509.62,-318.025 1499.04,-318.65 1501.74,-325.109"/>
</g>
<!-- N4&#45;&gt;N11 -->
<g id="edge98" class="edge"><title>N4&#45;&gt;N11</title>
<path fill="none" stroke="black" d="M1151.63,-371.757C1049.99,-350.37 675.475,-266.74 596.125,-180 561.811,-142.49 551.506,-81.5919 548.425,-46.4279"/>
<polygon fill="black" stroke="black" points="551.911,-46.1097 547.682,-36.3955 544.93,-46.6267 551.911,-46.1097"/>
</g>
<!-- N4&#45;&gt;N12 -->
<g id="edge97" class="edge"><title>N4&#45;&gt;N12</title>
<path fill="none" stroke="black" d="M1154.46,-368.01C1093.39,-343.787 925.17,-277.063 852.872,-248.385"/>
<polygon fill="black" stroke="black" points="853.914,-245.034 843.328,-244.6 851.333,-251.54 853.914,-245.034"/>
</g>
<!-- N4&#45;&gt;N17 -->
<g id="edge99" class="edge"><title>N4&#45;&gt;N17</title>
<path fill="none" stroke="black" d="M1181.63,-360.113C1192.79,-320.173 1224.39,-217.725 1273.13,-144 1300.66,-102.338 1343.41,-62.7463 1370.57,-39.6761"/>
<polygon fill="black" stroke="black" points="1373.05,-42.1675 1378.46,-33.0628 1368.55,-36.8016 1373.05,-42.1675"/>
</g>
<!-- N4&#45;&gt;N19 -->
<g id="edge101" class="edge"><title>N4&#45;&gt;N19</title>
<path fill="none" stroke="black" d="M1169.29,-360.563C1151.64,-323.53 1108.65,-233.332 1087.41,-188.776"/>
<polygon fill="black" stroke="black" points="1090.45,-187.014 1082.99,-179.493 1084.13,-190.026 1090.45,-187.014"/>
</g>
<!-- N4&#45;&gt;N27 -->
<g id="edge102" class="edge"><title>N4&#45;&gt;N27</title>
<path fill="none" stroke="black" d="M1197.12,-365.523C1201.03,-363.526 1205.15,-361.584 1209.13,-360 1264.82,-337.805 1286.05,-351.875 1339.13,-324 1361.19,-312.411 1359.07,-297.463 1382.13,-288 1563.23,-213.677 1632.01,-302.611 1821.13,-252 1823.08,-251.477 1825.05,-250.852 1827.02,-250.155"/>
<polygon fill="black" stroke="black" points="1828.74,-253.234 1836.67,-246.206 1826.09,-246.756 1828.74,-253.234"/>
</g>
<!-- N45 -->
<g id="node46" class="node"><title>N45</title>
<ellipse fill="none" stroke="black" cx="1131.13" cy="-90" rx="47.169" ry="18"/>
<text text-anchor="middle" x="1131.13" y="-86.3" font-family="Times,serif" font-size="14.00">io_surface</text>
</g>
<!-- N4&#45;&gt;N45 -->
<g id="edge100" class="edge"><title>N4&#45;&gt;N45</title>
<path fill="none" stroke="black" d="M1174.39,-359.966C1166.7,-312.192 1144.9,-176.623 1135.51,-118.266"/>
<polygon fill="black" stroke="black" points="1138.95,-117.624 1133.91,-108.306 1132.04,-118.735 1138.95,-117.624"/>
</g>
<!-- N5&#45;&gt;N6 -->
<g id="edge106" class="edge"><title>N5&#45;&gt;N6</title>
<path fill="none" stroke="black" d="M1503.19,-375.235C1357.82,-365.706 667.167,-320.439 499.07,-309.421"/>
<polygon fill="black" stroke="black" points="499.194,-305.922 488.987,-308.761 498.736,-312.907 499.194,-305.922"/>
</g>
<!-- N5&#45;&gt;N8 -->
<g id="edge109" class="edge"><title>N5&#45;&gt;N8</title>
<path fill="none" stroke="black" d="M1530.13,-359.697C1530.13,-351.983 1530.13,-342.712 1530.13,-334.112"/>
<polygon fill="black" stroke="black" points="1533.63,-334.104 1530.13,-324.104 1526.63,-334.104 1533.63,-334.104"/>
</g>
<!-- N5&#45;&gt;N17 -->
<g id="edge104" class="edge"><title>N5&#45;&gt;N17</title>
<path fill="none" stroke="black" d="M1544.12,-362.53C1560.17,-344.127 1582.29,-311.877 1566.13,-288 1541.97,-252.326 1512.56,-274.992 1476.13,-252 1456.18,-239.411 1457.14,-228.478 1437.13,-216 1399.51,-192.555 1369.18,-216.562 1344.13,-180 1335.08,-166.801 1338.93,-159.134 1344.13,-144 1350.7,-124.827 1363.09,-126.143 1372.13,-108 1381.91,-88.3627 1388.1,-64.234 1391.73,-46.0561"/>
<polygon fill="black" stroke="black" points="1395.19,-46.5923 1393.59,-36.1198 1388.31,-45.3077 1395.19,-46.5923"/>
</g>
<!-- N5&#45;&gt;N27 -->
<g id="edge108" class="edge"><title>N5&#45;&gt;N27</title>
<path fill="none" stroke="black" d="M1551.27,-366.766C1586.83,-349.683 1661.03,-314.609 1725.13,-288 1767.21,-270.529 1779.15,-269.744 1821.13,-252 1822.94,-251.233 1824.8,-250.426 1826.66,-249.597"/>
<polygon fill="black" stroke="black" points="1828.29,-252.7 1835.94,-245.361 1825.39,-246.333 1828.29,-252.7"/>
</g>
<!-- N5&#45;&gt;N36 -->
<g id="edge107" class="edge"><title>N5&#45;&gt;N36</title>
<path fill="none" stroke="black" d="M1512.82,-363.834C1499.73,-353.876 1481.49,-339.992 1466.3,-328.439"/>
<polygon fill="black" stroke="black" points="1468.31,-325.571 1458.24,-322.301 1464.07,-331.142 1468.31,-325.571"/>
</g>
<!-- N40 -->
<g id="node41" class="node"><title>N40</title>
<ellipse fill="none" stroke="black" cx="1761.13" cy="-306" rx="27" ry="18"/>
<text text-anchor="middle" x="1761.13" y="-302.3" font-family="Times,serif" font-size="14.00">http</text>
</g>
<!-- N5&#45;&gt;N40 -->
<g id="edge105" class="edge"><title>N5&#45;&gt;N40</title>
<path fill="none" stroke="black" d="M1554.41,-369.641C1595.74,-357.116 1679.86,-331.625 1727.06,-317.323"/>
<polygon fill="black" stroke="black" points="1728.26,-320.615 1736.82,-314.365 1726.23,-313.916 1728.26,-320.615"/>
</g>
<!-- N50 -->
<g id="node51" class="node"><title>N50</title>
<ellipse fill="none" stroke="black" cx="462.125" cy="-234" rx="38.0212" ry="18"/>
<text text-anchor="middle" x="462.125" y="-230.3" font-family="Times,serif" font-size="14.00">png&#45;sys</text>
</g>
<!-- N6&#45;&gt;N50 -->
<g id="edge110" class="edge"><title>N6&#45;&gt;N50</title>
<path fill="none" stroke="black" d="M462.125,-287.697C462.125,-279.983 462.125,-270.712 462.125,-262.112"/>
<polygon fill="black" stroke="black" points="465.625,-262.104 462.125,-252.104 458.625,-262.104 465.625,-262.104"/>
</g>
<!-- N7&#45;&gt;N2 -->
<g id="edge115" class="edge"><title>N7&#45;&gt;N2</title>
<path fill="none" stroke="black" d="M1952.02,-518.962C1803.4,-508.9 1148.59,-464.571 985.174,-453.508"/>
<polygon fill="black" stroke="black" points="985.345,-450.012 975.132,-452.828 984.872,-456.996 985.345,-450.012"/>
</g>
<!-- N7&#45;&gt;N4 -->
<g id="edge120" class="edge"><title>N7&#45;&gt;N4</title>
<path fill="none" stroke="black" d="M1952.38,-518.439C1882.52,-512.179 1702.62,-494.641 1554.13,-468 1426.58,-445.117 1277.45,-406.258 1211.49,-388.438"/>
<polygon fill="black" stroke="black" points="1212.2,-385.005 1201.63,-385.765 1210.37,-391.761 1212.2,-385.005"/>
</g>
<!-- N7&#45;&gt;N5 -->
<g id="edge121" class="edge"><title>N7&#45;&gt;N5</title>
<path fill="none" stroke="black" d="M1955.87,-512.752C1878.21,-488.354 1649.67,-416.556 1563.51,-389.487"/>
<polygon fill="black" stroke="black" points="1564.55,-386.146 1553.96,-386.488 1562.45,-392.824 1564.55,-386.146"/>
</g>
<!-- N7&#45;&gt;N8 -->
<g id="edge125" class="edge"><title>N7&#45;&gt;N8</title>
<path fill="none" stroke="black" d="M1960.49,-509.024C1900.92,-476.122 1735.09,-385.129 1678.13,-360 1639.76,-343.076 1594.14,-327.377 1563.79,-317.528"/>
<polygon fill="black" stroke="black" points="1564.71,-314.146 1554.12,-314.419 1562.57,-320.811 1564.71,-314.146"/>
</g>
<!-- N7&#45;&gt;N17 -->
<g id="edge114" class="edge"><title>N7&#45;&gt;N17</title>
<path fill="none" stroke="black" d="M2011.94,-518.234C2074.57,-511.954 2217.3,-495.033 2257.13,-468 2351.11,-404.209 2362.13,-348.585 2362.13,-235 2362.13,-235 2362.13,-235 2362.13,-161 2362.13,-65.8552 1619.12,-28.377 1436.36,-20.5977"/>
<polygon fill="black" stroke="black" points="1436.5,-17.1005 1426.36,-20.1781 1436.21,-24.0944 1436.5,-17.1005"/>
</g>
<!-- N23 -->
<g id="node24" class="node"><title>N23</title>
<ellipse fill="none" stroke="black" cx="1916.13" cy="-306" rx="34.1708" ry="18"/>
<text text-anchor="middle" x="1916.13" y="-302.3" font-family="Times,serif" font-size="14.00">canvas</text>
</g>
<!-- N7&#45;&gt;N23 -->
<g id="edge111" class="edge"><title>N7&#45;&gt;N23</title>
<path fill="none" stroke="black" d="M1976.95,-504.208C1965.53,-467.186 1938.11,-378.297 1924.33,-333.604"/>
<polygon fill="black" stroke="black" points="1927.66,-332.535 1921.37,-324.01 1920.97,-334.598 1927.66,-332.535"/>
</g>
<!-- N7&#45;&gt;N26 -->
<g id="edge122" class="edge"><title>N7&#45;&gt;N26</title>
<path fill="none" stroke="black" d="M1953.63,-515.565C1892.63,-503.929 1748.5,-476.44 1669.41,-461.354"/>
<polygon fill="black" stroke="black" points="1669.64,-457.835 1659.16,-459.4 1668.33,-464.711 1669.64,-457.835"/>
</g>
<!-- N7&#45;&gt;N27 -->
<g id="edge124" class="edge"><title>N7&#45;&gt;N27</title>
<path fill="none" stroke="black" d="M2003.83,-509.353C2065.43,-474.86 2232.56,-370.493 2163.13,-288 2129.21,-247.701 1968.81,-238.043 1894.76,-235.729"/>
<polygon fill="black" stroke="black" points="1894.58,-232.223 1884.48,-235.438 1894.38,-239.22 1894.58,-232.223"/>
</g>
<!-- N28 -->
<g id="node29" class="node"><title>N28</title>
<ellipse fill="none" stroke="black" cx="2253.13" cy="-306" rx="42.3456" ry="18"/>
<text text-anchor="middle" x="2253.13" y="-302.3" font-family="Times,serif" font-size="14.00">cssparser</text>
</g>
<!-- N7&#45;&gt;N28 -->
<g id="edge112" class="edge"><title>N7&#45;&gt;N28</title>
<path fill="none" stroke="black" d="M2011.68,-517.177C2063.81,-509.882 2169.12,-492.492 2196.13,-468 2234.64,-433.068 2247.14,-370.448 2251.19,-334.463"/>
<polygon fill="black" stroke="black" points="2254.7,-334.505 2252.19,-324.211 2247.73,-333.821 2254.7,-334.505"/>
</g>
<!-- N29 -->
<g id="node30" class="node"><title>N29</title>
<ellipse fill="none" stroke="black" cx="2130.13" cy="-162" rx="42.3456" ry="18"/>
<text text-anchor="middle" x="2130.13" y="-158.3" font-family="Times,serif" font-size="14.00">encoding</text>
</g>
<!-- N7&#45;&gt;N29 -->
<g id="edge113" class="edge"><title>N7&#45;&gt;N29</title>
<path fill="none" stroke="black" d="M2012.76,-521.915C2061.94,-521.841 2159.43,-515.167 2223.13,-468 2282.14,-424.299 2285.52,-395.034 2304.13,-324 2322.96,-252.116 2228.67,-201.543 2171.46,-177.978"/>
<polygon fill="black" stroke="black" points="2172.52,-174.631 2161.93,-174.16 2169.91,-181.129 2172.52,-174.631"/>
</g>
<!-- N7&#45;&gt;N35 -->
<g id="edge119" class="edge"><title>N7&#45;&gt;N35</title>
<path fill="none" stroke="black" d="M1992.35,-504.915C2015.93,-467.812 2074.25,-376.031 2102.42,-331.72"/>
<polygon fill="black" stroke="black" points="2105.37,-333.589 2107.78,-323.271 2099.47,-329.834 2105.37,-333.589"/>
</g>
<!-- N7&#45;&gt;N37 -->
<g id="edge123" class="edge"><title>N7&#45;&gt;N37</title>
<path fill="none" stroke="black" d="M1986.16,-504.153C1991.99,-479.813 2002.82,-434.568 2009.74,-405.665"/>
<polygon fill="black" stroke="black" points="2013.17,-406.365 2012.1,-395.825 2006.36,-404.735 2013.17,-406.365"/>
</g>
<!-- N7&#45;&gt;N40 -->
<g id="edge116" class="edge"><title>N7&#45;&gt;N40</title>
<path fill="none" stroke="black" d="M1966.94,-506.291C1928.66,-469.233 1828.15,-371.902 1783.29,-328.465"/>
<polygon fill="black" stroke="black" points="1785.46,-325.69 1775.84,-321.248 1780.59,-330.719 1785.46,-325.69"/>
</g>
<!-- N42 -->
<g id="node43" class="node"><title>N42</title>
<ellipse fill="none" stroke="black" cx="2513.13" cy="-450" rx="37.0701" ry="18"/>
<text text-anchor="middle" x="2513.13" y="-446.3" font-family="Times,serif" font-size="14.00">hubbub</text>
</g>
<!-- N7&#45;&gt;N42 -->
<g id="edge117" class="edge"><title>N7&#45;&gt;N42</title>
<path fill="none" stroke="black" d="M2012.19,-518.977C2086.36,-513.68 2283.83,-497.719 2446.13,-468 2454.61,-466.446 2463.61,-464.425 2472.17,-462.321"/>
<polygon fill="black" stroke="black" points="2473.13,-465.69 2481.96,-459.837 2471.4,-458.905 2473.13,-465.69"/>
</g>
<!-- N46 -->
<g id="node47" class="node"><title>N46</title>
<ellipse fill="none" stroke="black" cx="2410.13" cy="-450" rx="27" ry="18"/>
<text text-anchor="middle" x="2410.13" y="-446.3" font-family="Times,serif" font-size="14.00">js</text>
</g>
<!-- N7&#45;&gt;N46 -->
<g id="edge118" class="edge"><title>N7&#45;&gt;N46</title>
<path fill="none" stroke="black" d="M2012.28,-518.638C2076.66,-513.187 2232.05,-497.85 2359.13,-468 2365.12,-466.592 2371.41,-464.78 2377.45,-462.866"/>
<polygon fill="black" stroke="black" points="2378.89,-466.077 2387.28,-459.603 2376.68,-459.434 2378.89,-466.077"/>
</g>
<!-- N8&#45;&gt;N12 -->
<g id="edge142" class="edge"><title>N8&#45;&gt;N12</title>
<path fill="none" stroke="black" d="M1510.05,-293.957C1504.99,-291.613 1499.47,-289.42 1494.13,-288 1372.98,-255.802 985.163,-240.466 859.115,-236.245"/>
<polygon fill="black" stroke="black" points="858.884,-232.736 848.774,-235.904 858.653,-239.732 858.884,-232.736"/>
</g>
<!-- N8&#45;&gt;N17 -->
<g id="edge143" class="edge"><title>N8&#45;&gt;N17</title>
<path fill="none" stroke="black" d="M1548.36,-292.376C1592.93,-261.478 1703.93,-184.256 1706.13,-180 1713.47,-165.783 1715.08,-157.262 1706.13,-144 1644.83,-53.1875 1505.32,-28.3351 1436.31,-21.5452"/>
<polygon fill="black" stroke="black" points="1436.54,-18.0513 1426.26,-20.6358 1435.91,-25.0228 1436.54,-18.0513"/>
</g>
<!-- N51 -->
<g id="node52" class="node"><title>N51</title>
<ellipse fill="none" stroke="black" cx="1540.13" cy="-234" rx="55.3682" ry="18"/>
<text text-anchor="middle" x="1540.13" y="-230.3" font-family="Times,serif" font-size="14.00">string_cache</text>
</g>
<!-- N8&#45;&gt;N51 -->
<g id="edge144" class="edge"><title>N8&#45;&gt;N51</title>
<path fill="none" stroke="black" d="M1532.55,-288.055C1533.65,-280.346 1534.98,-271.027 1536.22,-262.364"/>
<polygon fill="black" stroke="black" points="1539.71,-262.67 1537.66,-252.275 1532.78,-261.68 1539.71,-262.67"/>
</g>
<!-- N53 -->
<g id="node54" class="node"><title>N53</title>
<ellipse fill="none" stroke="black" cx="1385.13" cy="-234" rx="43.319" ry="18"/>
<text text-anchor="middle" x="1385.13" y="-230.3" font-family="Times,serif" font-size="14.00">task_info</text>
</g>
<!-- N8&#45;&gt;N53 -->
<g id="edge145" class="edge"><title>N8&#45;&gt;N53</title>
<path fill="none" stroke="black" d="M1508.73,-294.671C1485.83,-283.615 1449.08,-265.876 1421.6,-252.607"/>
<polygon fill="black" stroke="black" points="1422.83,-249.315 1412.3,-248.119 1419.78,-255.618 1422.83,-249.315"/>
</g>
<!-- N10 -->
<g id="node11" class="node"><title>N10</title>
<ellipse fill="none" stroke="black" cx="137.125" cy="-450" rx="31.2965" ry="18"/>
<text text-anchor="middle" x="137.125" y="-446.3" font-family="Times,serif" font-size="14.00">cocoa</text>
</g>
<!-- N9&#45;&gt;N10 -->
<g id="edge9" class="edge"><title>N9&#45;&gt;N10</title>
<path fill="none" stroke="black" d="M137.125,-503.697C137.125,-495.983 137.125,-486.712 137.125,-478.112"/>
<polygon fill="black" stroke="black" points="140.625,-478.104 137.125,-468.104 133.625,-478.104 140.625,-478.104"/>
</g>
<!-- N9&#45;&gt;N11 -->
<g id="edge10" class="edge"><title>N9&#45;&gt;N11</title>
<path fill="none" stroke="black" d="M123.291,-506.382C114.52,-496.328 103.638,-482.261 97.1253,-468 80.3223,-431.209 78.1253,-419.447 78.1253,-379 78.1253,-379 78.1253,-379 78.1253,-161 78.1253,-120.553 67.2253,-99.2386 97.1253,-72 110.842,-59.5045 348.824,-36.6346 473.011,-25.4729"/>
<polygon fill="black" stroke="black" points="473.56,-28.9379 483.208,-24.5598 472.935,-21.9658 473.56,-28.9379"/>
</g>
<!-- N12&#45;&gt;N11 -->
<g id="edge11" class="edge"><title>N12&#45;&gt;N11</title>
<path fill="none" stroke="black" d="M789.38,-232.894C747.286,-231.168 670.228,-221.983 623.125,-180 584.557,-145.624 603.427,-118.111 580.125,-72 575.481,-62.8095 569.739,-53.1415 564.354,-44.6159"/>
<polygon fill="black" stroke="black" points="567.295,-42.7179 558.932,-36.2128 561.413,-46.5131 567.295,-42.7179"/>
</g>
<!-- N12&#45;&gt;N13 -->
<g id="edge12" class="edge"><title>N12&#45;&gt;N13</title>
<path fill="none" stroke="black" d="M789.936,-231.495C705.681,-226.82 463.485,-210.975 391.125,-180 367.897,-170.057 369.475,-155.786 347.125,-144 325.181,-132.427 265.793,-115.984 220.981,-104.492"/>
<polygon fill="black" stroke="black" points="221.64,-101.048 211.086,-101.973 219.914,-107.832 221.64,-101.048"/>
</g>
<!-- N12&#45;&gt;N14 -->
<g id="edge13" class="edge"><title>N12&#45;&gt;N14</title>
<path fill="none" stroke="black" d="M789.953,-231.428C716.163,-227.077 516.346,-212.948 353.125,-180 348.301,-179.026 343.297,-177.838 338.342,-176.548"/>
<polygon fill="black" stroke="black" points="338.881,-173.066 328.311,-173.79 337.025,-179.816 338.881,-173.066"/>
</g>
<!-- N15 -->
<g id="node16" class="node"><title>N15</title>
<ellipse fill="none" stroke="black" cx="891.125" cy="-90" rx="27" ry="18"/>
<text text-anchor="middle" x="891.125" y="-86.3" font-family="Times,serif" font-size="14.00">egl</text>
</g>
<!-- N12&#45;&gt;N15 -->
<g id="edge14" class="edge"><title>N12&#45;&gt;N15</title>
<path fill="none" stroke="black" d="M843.328,-223.634C849.761,-221.149 856.705,-218.47 863.125,-216 904.879,-199.938 931.772,-216.859 957.125,-180 966.193,-166.817 964.043,-158.427 957.125,-144 949.568,-128.239 934.785,-115.682 921.123,-106.755"/>
<polygon fill="black" stroke="black" points="922.751,-103.647 912.394,-101.415 919.098,-109.619 922.751,-103.647"/>
</g>
<!-- N12&#45;&gt;N16 -->
<g id="edge15" class="edge"><title>N12&#45;&gt;N16</title>
<path fill="none" stroke="black" d="M817.642,-215.697C816.981,-207.983 816.186,-198.712 815.449,-190.112"/>
<polygon fill="black" stroke="black" points="818.933,-189.769 814.591,-180.104 811.958,-190.367 818.933,-189.769"/>
</g>
<!-- N12&#45;&gt;N17 -->
<g id="edge16" class="edge"><title>N12&#45;&gt;N17</title>
<path fill="none" stroke="black" d="M848.365,-231.71C902.756,-228.465 1022.38,-217.323 1115.13,-180 1168.64,-158.463 1176.56,-142.051 1223.13,-108 1243.8,-92.8822 1246.07,-85.0287 1268.13,-72 1297.69,-54.5334 1334.08,-40.0654 1360.5,-30.6835"/>
<polygon fill="black" stroke="black" points="1361.81,-33.9346 1370.1,-27.3411 1359.51,-27.3238 1361.81,-33.9346"/>
</g>
<!-- N12&#45;&gt;N18 -->
<g id="edge17" class="edge"><title>N12&#45;&gt;N18</title>
<path fill="none" stroke="black" d="M791.551,-227.623C727.233,-215.082 567.323,-183.902 495.748,-169.946"/>
<polygon fill="black" stroke="black" points="496.335,-166.495 485.85,-168.016 494.996,-173.365 496.335,-166.495"/>
</g>
<!-- N12&#45;&gt;N19 -->
<g id="edge18" class="edge"><title>N12&#45;&gt;N19</title>
<path fill="none" stroke="black" d="M842.64,-223.141C849.2,-220.603 856.379,-218.021 863.125,-216 935.441,-194.331 956.652,-201.137 1029.13,-180 1032.77,-178.936 1036.55,-177.727 1040.29,-176.455"/>
<polygon fill="black" stroke="black" points="1041.78,-179.641 1050.03,-172.998 1039.44,-173.044 1041.78,-179.641"/>
</g>
<!-- N12&#45;&gt;N20 -->
<g id="edge19" class="edge"><title>N12&#45;&gt;N20</title>
<path fill="none" stroke="black" d="M789.869,-231.27C709.978,-226.202 489.703,-209.835 424.125,-180 402.053,-169.958 403.247,-157.534 383.125,-144 353.439,-124.033 337.728,-131.923 311.125,-108 291.517,-90.3671 275.96,-64.4822 266.086,-45.1681"/>
<polygon fill="black" stroke="black" points="269.135,-43.4366 261.575,-36.0129 262.855,-46.5301 269.135,-43.4366"/>
</g>
<!-- N21 -->
<g id="node22" class="node"><title>N21</title>
<ellipse fill="none" stroke="black" cx="910.125" cy="-162" rx="38.4949" ry="18"/>
<text text-anchor="middle" x="910.125" y="-158.3" font-family="Times,serif" font-size="14.00">skia&#45;sys</text>
</g>
<!-- N12&#45;&gt;N21 -->
<g id="edge20" class="edge"><title>N12&#45;&gt;N21</title>
<path fill="none" stroke="black" d="M836.671,-219.503C849.831,-209.38 868.086,-195.338 883.105,-183.785"/>
<polygon fill="black" stroke="black" points="885.27,-186.535 891.063,-177.664 881.002,-180.987 885.27,-186.535"/>
</g>
<!-- N22 -->
<g id="node23" class="node"><title>N22</title>
<ellipse fill="none" stroke="black" cx="963.125" cy="-90" rx="27" ry="18"/>
<text text-anchor="middle" x="963.125" y="-86.3" font-family="Times,serif" font-size="14.00">xlib</text>
</g>
<!-- N12&#45;&gt;N22 -->
<g id="edge21" class="edge"><title>N12&#45;&gt;N22</title>
<path fill="none" stroke="black" d="M843.239,-223.395C849.673,-220.912 856.64,-218.293 863.125,-216 912.421,-198.571 944.326,-222.252 975.125,-180 988.421,-161.761 982.842,-135.689 975.484,-116.476"/>
<polygon fill="black" stroke="black" points="978.66,-115 971.564,-107.132 972.205,-117.708 978.66,-115"/>
</g>
<!-- N13&#45;&gt;N11 -->
<g id="edge41" class="edge"><title>N13&#45;&gt;N11</title>
<path fill="none" stroke="black" d="M215.544,-79.9205C283.95,-67.3523 407.575,-44.6393 483.014,-30.7789"/>
<polygon fill="black" stroke="black" points="483.672,-34.2168 492.875,-28.9673 482.407,-27.332 483.672,-34.2168"/>
</g>
<!-- N14&#45;&gt;N11 -->
<g id="edge42" class="edge"><title>N14&#45;&gt;N11</title>
<path fill="none" stroke="black" d="M293.054,-143.788C291.678,-123.809 292.773,-91.1599 311.125,-72 333.413,-48.7318 413.782,-34.315 474.592,-26.4987"/>
<polygon fill="black" stroke="black" points="475.063,-29.9671 484.552,-25.2543 474.195,-23.0211 475.063,-29.9671"/>
</g>
<!-- N14&#45;&gt;N13 -->
<g id="edge43" class="edge"><title>N14&#45;&gt;N13</title>
<path fill="none" stroke="black" d="M269.947,-147.337C250.828,-136.962 224.255,-122.543 202.779,-110.89"/>
<polygon fill="black" stroke="black" points="204.383,-107.778 193.924,-106.085 201.044,-113.93 204.383,-107.778"/>
</g>
<!-- N38 -->
<g id="node39" class="node"><title>N38</title>
<ellipse fill="none" stroke="black" cx="455.125" cy="-90" rx="44.271" ry="18"/>
<text text-anchor="middle" x="455.125" y="-86.3" font-family="Times,serif" font-size="14.00">link_glfw</text>
</g>
<!-- N18&#45;&gt;N38 -->
<g id="edge65" class="edge"><title>N18&#45;&gt;N38</title>
<path fill="none" stroke="black" d="M458.889,-143.697C458.338,-135.983 457.676,-126.712 457.062,-118.112"/>
<polygon fill="black" stroke="black" points="460.551,-117.83 456.347,-108.104 453.569,-118.328 460.551,-117.83"/>
</g>
<!-- N39 -->
<g id="node40" class="node"><title>N39</title>
<ellipse fill="none" stroke="black" cx="356.125" cy="-90" rx="36.096" ry="18"/>
<text text-anchor="middle" x="356.125" y="-86.3" font-family="Times,serif" font-size="14.00">semver</text>
</g>
<!-- N18&#45;&gt;N39 -->
<g id="edge66" class="edge"><title>N18&#45;&gt;N39</title>
<path fill="none" stroke="black" d="M441.532,-148.485C425.867,-137.941 403.187,-122.676 385.135,-110.526"/>
<polygon fill="black" stroke="black" points="386.946,-107.526 376.696,-104.845 383.037,-113.333 386.946,-107.526"/>
</g>
<!-- N19&#45;&gt;N11 -->
<g id="edge76" class="edge"><title>N19&#45;&gt;N11</title>
<path fill="none" stroke="black" d="M1072.06,-144.04C1067.36,-123.348 1056.24,-89.0241 1032.13,-72 968.505,-27.0802 746.031,-19.3469 625.747,-18.5543"/>
<polygon fill="black" stroke="black" points="625.514,-15.0532 615.496,-18.5019 625.478,-22.0531 625.514,-15.0532"/>
</g>
<!-- N19&#45;&gt;N15 -->
<g id="edge77" class="edge"><title>N19&#45;&gt;N15</title>
<path fill="none" stroke="black" d="M1048.36,-152.29C1018.49,-142.367 968.859,-125.278 927.125,-108 925.305,-107.246 923.444,-106.45 921.574,-105.63"/>
<polygon fill="black" stroke="black" points="922.845,-102.363 912.292,-101.414 919.95,-108.736 922.845,-102.363"/>
</g>
<!-- N19&#45;&gt;N17 -->
<g id="edge78" class="edge"><title>N19&#45;&gt;N17</title>
<path fill="none" stroke="black" d="M1100.56,-151.156C1123.91,-141.616 1159.04,-125.979 1187.13,-108 1208.12,-94.5603 1208.29,-84.0158 1230.13,-72 1271.14,-49.434 1323.21,-34.7849 1358,-26.7261"/>
<polygon fill="black" stroke="black" points="1358.78,-30.1384 1367.77,-24.531 1357.24,-23.3087 1358.78,-30.1384"/>
</g>
<!-- N19&#45;&gt;N20 -->
<g id="edge80" class="edge"><title>N19&#45;&gt;N20</title>
<path fill="none" stroke="black" d="M1062.13,-145.152C1041.55,-120.143 1003.35,-74.1225 999.125,-72 893.861,-19.0597 587.637,-44.6226 470.125,-36 413.688,-31.8588 348.989,-26.7141 305.228,-23.1754"/>
<polygon fill="black" stroke="black" points="305.372,-19.6756 295.122,-22.3566 304.807,-26.6528 305.372,-19.6756"/>
</g>
<!-- N19&#45;&gt;N22 -->
<g id="edge81" class="edge"><title>N19&#45;&gt;N22</title>
<path fill="none" stroke="black" d="M1054.58,-148.161C1036.73,-137.003 1010.71,-120.74 990.983,-108.411"/>
<polygon fill="black" stroke="black" points="992.75,-105.388 982.415,-103.056 989.04,-111.324 992.75,-105.388"/>
</g>
<!-- N19&#45;&gt;N45 -->
<g id="edge79" class="edge"><title>N19&#45;&gt;N45</title>
<path fill="none" stroke="black" d="M1087.55,-145.465C1094.6,-136.654 1103.58,-125.43 1111.55,-115.463"/>
<polygon fill="black" stroke="black" points="1114.44,-117.462 1117.95,-107.467 1108.97,-113.089 1114.44,-117.462"/>
</g>
<!-- N30 -->
<g id="node31" class="node"><title>N30</title>
<ellipse fill="none" stroke="black" cx="802.125" cy="-90" rx="44.2946" ry="18"/>
<text text-anchor="middle" x="802.125" y="-86.3" font-family="Times,serif" font-size="14.00">expat&#45;sys</text>
</g>
<!-- N21&#45;&gt;N30 -->
<g id="edge130" class="edge"><title>N21&#45;&gt;N30</title>
<path fill="none" stroke="black" d="M888.529,-147.003C872.804,-136.81 851.259,-122.846 833.618,-111.412"/>
<polygon fill="black" stroke="black" points="835.096,-108.199 824.801,-105.697 831.289,-114.073 835.096,-108.199"/>
</g>
<!-- N33 -->
<g id="node34" class="node"><title>N33</title>
<ellipse fill="none" stroke="black" cx="686.125" cy="-90" rx="53.4184" ry="18"/>
<text text-anchor="middle" x="686.125" y="-86.3" font-family="Times,serif" font-size="14.00">freetype&#45;sys</text>
</g>
<!-- N21&#45;&gt;N33 -->
<g id="edge131" class="edge"><title>N21&#45;&gt;N33</title>
<path fill="none" stroke="black" d="M880.39,-150.471C874.048,-148.285 867.377,-146.03 861.125,-144 818.806,-130.257 770.368,-115.675 735.197,-105.292"/>
<polygon fill="black" stroke="black" points="735.769,-101.812 725.188,-102.345 733.792,-108.527 735.769,-101.812"/>
</g>
<!-- N23&#45;&gt;N12 -->
<g id="edge22" class="edge"><title>N23&#45;&gt;N12</title>
<path fill="none" stroke="black" d="M1883.89,-299.614C1860.01,-295.813 1826.62,-290.9 1797.13,-288 1433.82,-252.275 992.057,-239.196 858.932,-235.904"/>
<polygon fill="black" stroke="black" points="858.886,-232.402 848.804,-235.658 858.716,-239.4 858.886,-232.402"/>
</g>
<!-- N23&#45;&gt;N17 -->
<g id="edge23" class="edge"><title>N23&#45;&gt;N17</title>
<path fill="none" stroke="black" d="M1914.68,-288.001C1909.9,-243.489 1890.26,-123.414 1815.13,-72 1754.16,-30.2855 1529.61,-21.4031 1436.74,-19.5117"/>
<polygon fill="black" stroke="black" points="1436.67,-16.0099 1426.61,-19.3227 1436.54,-23.0087 1436.67,-16.0099"/>
</g>
<!-- N24&#45;&gt;N20 -->
<g id="edge67" class="edge"><title>N24&#45;&gt;N20</title>
<path fill="none" stroke="black" d="M56.9764,-504.07C50.8564,-477.571 40.1253,-424.605 40.1253,-379 40.1253,-379 40.1253,-379 40.1253,-161 40.1253,-120.031 35.2815,-101.094 64.1253,-72 100.209,-35.6034 159.039,-23.6487 201.688,-19.9971"/>
<polygon fill="black" stroke="black" points="202.166,-23.4717 211.885,-19.2542 201.657,-16.4902 202.166,-23.4717"/>
</g>
<!-- N25&#45;&gt;N2 -->
<g id="edge92" class="edge"><title>N25&#45;&gt;N2</title>
<path fill="none" stroke="black" d="M1231.89,-511.559C1166.1,-497.519 1043.77,-471.412 983.524,-458.555"/>
<polygon fill="black" stroke="black" points="984.224,-455.125 973.714,-456.461 982.763,-461.971 984.224,-455.125"/>
</g>
<!-- N25&#45;&gt;N4 -->
<g id="edge93" class="edge"><title>N25&#45;&gt;N4</title>
<path fill="none" stroke="black" d="M1264.38,-504.153C1246.83,-478.987 1213.71,-431.471 1193.7,-402.779"/>
<polygon fill="black" stroke="black" points="1196.54,-400.726 1187.95,-394.524 1190.8,-404.729 1196.54,-400.726"/>
</g>
<!-- N25&#45;&gt;N5 -->
<g id="edge94" class="edge"><title>N25&#45;&gt;N5</title>
<path fill="none" stroke="black" d="M1302.83,-506.072C1350.81,-479.247 1451.24,-423.103 1500.96,-395.307"/>
<polygon fill="black" stroke="black" points="1502.89,-398.236 1509.91,-390.302 1499.47,-392.126 1502.89,-398.236"/>
</g>
<!-- N25&#45;&gt;N8 -->
<g id="edge96" class="edge"><title>N25&#45;&gt;N8</title>
<path fill="none" stroke="black" d="M1284.83,-504.047C1294.78,-485.456 1312.14,-455.186 1331.13,-432 1360.81,-395.753 1368.79,-385.447 1408.13,-360 1442.92,-337.495 1456.27,-340.851 1494.13,-324 1495.92,-323.199 1497.77,-322.365 1499.63,-321.517"/>
<polygon fill="black" stroke="black" points="1501.28,-324.609 1508.88,-317.226 1498.33,-318.259 1501.28,-324.609"/>
</g>
<!-- N25&#45;&gt;N26 -->
<g id="edge95" class="edge"><title>N25&#45;&gt;N26</title>
<path fill="none" stroke="black" d="M1321.14,-511.705C1383.5,-498.828 1495.95,-475.608 1562.24,-461.921"/>
<polygon fill="black" stroke="black" points="1562.98,-465.341 1572.07,-459.891 1561.57,-458.486 1562.98,-465.341"/>
</g>
<!-- N26&#45;&gt;N4 -->
<g id="edge127" class="edge"><title>N26&#45;&gt;N4</title>
<path fill="none" stroke="black" d="M1569.08,-441.641C1481.43,-427.632 1292.28,-397.404 1213.12,-384.752"/>
<polygon fill="black" stroke="black" points="1213.57,-381.28 1203.14,-383.158 1212.46,-388.192 1213.57,-381.28"/>
</g>
<!-- N26&#45;&gt;N5 -->
<g id="edge128" class="edge"><title>N26&#45;&gt;N5</title>
<path fill="none" stroke="black" d="M1595.84,-433.116C1583.51,-422.961 1567.41,-409.709 1554.24,-398.86"/>
<polygon fill="black" stroke="black" points="1556.42,-396.121 1546.48,-392.466 1551.97,-401.524 1556.42,-396.121"/>
</g>
<!-- N26&#45;&gt;N17 -->
<g id="edge126" class="edge"><title>N26&#45;&gt;N17</title>
<path fill="none" stroke="black" d="M1619.04,-431.83C1628.53,-392.136 1655.02,-291.633 1696.13,-216 1705.8,-198.19 1717.55,-199.173 1724.13,-180 1729.32,-164.866 1729.57,-159.044 1724.13,-144 1709.95,-104.833 1699.95,-93.2605 1664.13,-72 1592.09,-29.245 1491.89,-20.2575 1436.67,-18.7948"/>
<polygon fill="black" stroke="black" points="1436.64,-15.2936 1426.58,-18.5987 1436.51,-22.2923 1436.64,-15.2936"/>
</g>
<!-- N26&#45;&gt;N27 -->
<g id="edge129" class="edge"><title>N26&#45;&gt;N27</title>
<path fill="none" stroke="black" d="M1642.46,-434.578C1680.25,-413.726 1749.22,-372.319 1797.13,-324 1815.98,-304.981 1832.58,-279.266 1843.51,-260.368"/>
<polygon fill="black" stroke="black" points="1846.68,-261.868 1848.54,-251.438 1840.58,-258.428 1846.68,-261.868"/>
</g>
<!-- N27&#45;&gt;N29 -->
<g id="edge141" class="edge"><title>N27&#45;&gt;N29</title>
<path fill="none" stroke="black" d="M1881.83,-226.665C1927.65,-214.918 2026.39,-189.599 2084.6,-174.672"/>
<polygon fill="black" stroke="black" points="2085.81,-177.976 2094.63,-172.101 2084.07,-171.195 2085.81,-177.976"/>
</g>
<!-- N28&#45;&gt;N29 -->
<g id="edge44" class="edge"><title>N28&#45;&gt;N29</title>
<path fill="none" stroke="black" d="M2239.25,-288.987C2217.66,-264.058 2175.88,-215.828 2150.75,-186.812"/>
<polygon fill="black" stroke="black" points="2153.33,-184.44 2144.13,-179.173 2148.04,-189.023 2153.33,-184.44"/>
</g>
<!-- N32 -->
<g id="node33" class="node"><title>N32</title>
<ellipse fill="none" stroke="black" cx="694.125" cy="-162" rx="61.6163" ry="18"/>
<text text-anchor="middle" x="694.125" y="-158.3" font-family="Times,serif" font-size="14.00">fontconfig&#45;sys</text>
</g>
<!-- N31&#45;&gt;N32 -->
<g id="edge45" class="edge"><title>N31&#45;&gt;N32</title>
<path fill="none" stroke="black" d="M715.147,-359.818C713.961,-349.447 712.434,-335.967 711.125,-324 705.99,-277.058 700.273,-222.387 696.95,-190.35"/>
<polygon fill="black" stroke="black" points="700.431,-189.983 695.919,-180.397 693.468,-190.704 700.431,-189.983"/>
</g>
<!-- N32&#45;&gt;N30 -->
<g id="edge46" class="edge"><title>N32&#45;&gt;N30</title>
<path fill="none" stroke="black" d="M718.363,-145.291C733.79,-135.291 753.931,-122.237 770.596,-111.436"/>
<polygon fill="black" stroke="black" points="772.957,-114.076 779.445,-105.7 769.15,-108.202 772.957,-114.076"/>
</g>
<!-- N32&#45;&gt;N33 -->
<g id="edge47" class="edge"><title>N32&#45;&gt;N33</title>
<path fill="none" stroke="black" d="M692.148,-143.697C691.266,-135.983 690.207,-126.712 689.224,-118.112"/>
<polygon fill="black" stroke="black" points="692.693,-117.642 688.08,-108.104 685.738,-118.437 692.693,-117.642"/>
</g>
<!-- N37&#45;&gt;N8 -->
<g id="edge140" class="edge"><title>N37&#45;&gt;N8</title>
<path fill="none" stroke="black" d="M1989.65,-373.187C1908.02,-361.429 1660.08,-325.718 1566.45,-312.232"/>
<polygon fill="black" stroke="black" points="1566.72,-308.735 1556.33,-310.774 1565.73,-315.664 1566.72,-308.735"/>
</g>
<!-- N37&#45;&gt;N17 -->
<g id="edge137" class="edge"><title>N37&#45;&gt;N17</title>
<path fill="none" stroke="black" d="M2016.13,-359.951C2016.13,-333.292 2016.13,-280.115 2016.13,-235 2016.13,-235 2016.13,-235 2016.13,-161 2016.13,-41.6739 1574.25,-22.6183 1436.58,-19.5771"/>
<polygon fill="black" stroke="black" points="1436.52,-16.0753 1426.45,-19.3705 1436.38,-23.0738 1436.52,-16.0753"/>
</g>
<!-- N37&#45;&gt;N27 -->
<g id="edge139" class="edge"><title>N37&#45;&gt;N27</title>
<path fill="none" stroke="black" d="M2008.78,-360.396C1999.53,-341.001 1982.02,-308.913 1959.13,-288 1939.06,-269.676 1911.49,-255.852 1890.07,-246.924"/>
<polygon fill="black" stroke="black" points="1891.3,-243.644 1880.71,-243.168 1888.69,-250.14 1891.3,-243.644"/>
</g>
<!-- N37&#45;&gt;N28 -->
<g id="edge135" class="edge"><title>N37&#45;&gt;N28</title>
<path fill="none" stroke="black" d="M2040.6,-369.772C2080.43,-358.008 2159.82,-334.559 2209.49,-319.888"/>
<polygon fill="black" stroke="black" points="2210.71,-323.177 2219.31,-316.987 2208.73,-316.463 2210.71,-323.177"/>
</g>
<!-- N37&#45;&gt;N29 -->
<g id="edge136" class="edge"><title>N37&#45;&gt;N29</title>
<path fill="none" stroke="black" d="M2024.69,-360.915C2044.28,-324.148 2092.47,-233.689 2116.31,-188.936"/>
<polygon fill="black" stroke="black" points="2119.53,-190.333 2121.14,-179.862 2113.35,-187.042 2119.53,-190.333"/>
</g>
<!-- N37&#45;&gt;N35 -->
<g id="edge138" class="edge"><title>N37&#45;&gt;N35</title>
<path fill="none" stroke="black" d="M2034.36,-364.485C2049.63,-354.009 2071.68,-338.871 2089.33,-326.76"/>
<polygon fill="black" stroke="black" points="2091.33,-329.635 2097.59,-321.091 2087.37,-323.863 2091.33,-329.635"/>
</g>
<!-- N40&#45;&gt;N27 -->
<g id="edge69" class="edge"><title>N40&#45;&gt;N27</title>
<path fill="none" stroke="black" d="M1778.73,-292.161C1793.48,-281.405 1814.74,-265.907 1831.4,-253.761"/>
<polygon fill="black" stroke="black" points="1833.61,-256.477 1839.63,-247.758 1829.49,-250.821 1833.61,-256.477"/>
</g>
<!-- N41 -->
<g id="node42" class="node"><title>N41</title>
<ellipse fill="none" stroke="black" cx="1775.13" cy="-234" rx="37.0701" ry="18"/>
<text text-anchor="middle" x="1775.13" y="-230.3" font-family="Times,serif" font-size="14.00">openssl</text>
</g>
<!-- N40&#45;&gt;N41 -->
<g id="edge68" class="edge"><title>N40&#45;&gt;N41</title>
<path fill="none" stroke="black" d="M1764.51,-288.055C1766.06,-280.346 1767.92,-271.027 1769.65,-262.364"/>
<polygon fill="black" stroke="black" points="1773.14,-262.768 1771.67,-252.275 1766.28,-261.395 1773.14,-262.768"/>
</g>
<!-- N43 -->
<g id="node44" class="node"><title>N43</title>
<ellipse fill="none" stroke="black" cx="2534.13" cy="-378" rx="51.0191" ry="18"/>
<text text-anchor="middle" x="2534.13" y="-374.3" font-family="Times,serif" font-size="14.00">hubbub&#45;sys</text>
</g>
<!-- N42&#45;&gt;N43 -->
<g id="edge70" class="edge"><title>N42&#45;&gt;N43</title>
<path fill="none" stroke="black" d="M2518.21,-432.055C2520.55,-424.261 2523.38,-414.822 2526,-406.079"/>
<polygon fill="black" stroke="black" points="2529.42,-406.859 2528.94,-396.275 2522.72,-404.848 2529.42,-406.859"/>
</g>
<!-- N44 -->
<g id="node45" class="node"><title>N44</title>
<ellipse fill="none" stroke="black" cx="2534.13" cy="-306" rx="61.6163" ry="18"/>
<text text-anchor="middle" x="2534.13" y="-302.3" font-family="Times,serif" font-size="14.00">parserutils&#45;sys</text>
</g>
<!-- N43&#45;&gt;N44 -->
<g id="edge71" class="edge"><title>N43&#45;&gt;N44</title>
<path fill="none" stroke="black" d="M2534.13,-359.697C2534.13,-351.983 2534.13,-342.712 2534.13,-334.112"/>
<polygon fill="black" stroke="black" points="2537.63,-334.104 2534.13,-324.104 2530.63,-334.104 2537.63,-334.104"/>
</g>
<!-- N45&#45;&gt;N11 -->
<g id="edge72" class="edge"><title>N45&#45;&gt;N11</title>
<path fill="none" stroke="black" d="M1095.56,-77.9897C1087.28,-75.7318 1078.44,-73.5687 1070.13,-72 913.189,-42.4047 726.431,-28.5053 623.95,-22.6721"/>
<polygon fill="black" stroke="black" points="623.873,-19.1625 613.694,-22.0994 623.483,-26.1516 623.873,-19.1625"/>
</g>
<!-- N45&#45;&gt;N17 -->
<g id="edge73" class="edge"><title>N45&#45;&gt;N17</title>
<path fill="none" stroke="black" d="M1167.87,-78.6471C1175.86,-76.4277 1184.27,-74.1149 1192.13,-72 1250.27,-56.3462 1317.95,-38.9181 1358.89,-28.4645"/>
<polygon fill="black" stroke="black" points="1359.87,-31.8256 1368.7,-25.9624 1358.14,-25.0428 1359.87,-31.8256"/>
</g>
<!-- N45&#45;&gt;N20 -->
<g id="edge74" class="edge"><title>N45&#45;&gt;N20</title>
<path fill="none" stroke="black" d="M1089.84,-80.9041C1072.13,-77.6932 1051.18,-74.2396 1032.13,-72 783.547,-42.7794 719.78,-53.8195 470.125,-36 413.68,-31.9711 348.982,-26.8067 305.224,-23.2326"/>
<polygon fill="black" stroke="black" points="305.371,-19.733 295.119,-22.4051 304.8,-26.7097 305.371,-19.733"/>
</g>
<!-- N47 -->
<g id="node48" class="node"><title>N47</title>
<ellipse fill="none" stroke="black" cx="2419.13" cy="-378" rx="46.2191" ry="18"/>
<text text-anchor="middle" x="2419.13" y="-374.3" font-family="Times,serif" font-size="14.00">mozjs&#45;sys</text>
</g>
<!-- N46&#45;&gt;N47 -->
<g id="edge75" class="edge"><title>N46&#45;&gt;N47</title>
<path fill="none" stroke="black" d="M2412.3,-432.055C2413.3,-424.346 2414.49,-415.027 2415.61,-406.364"/>
<polygon fill="black" stroke="black" points="2419.1,-406.64 2416.9,-396.275 2412.16,-405.747 2419.1,-406.64"/>
</g>
<!-- N48 -->
<g id="node49" class="node"><title>N48</title>
<ellipse fill="none" stroke="black" cx="1670.13" cy="-162" rx="27" ry="18"/>
<text text-anchor="middle" x="1670.13" y="-158.3" font-family="Times,serif" font-size="14.00">phf</text>
</g>
<!-- N49 -->
<g id="node50" class="node"><title>N49</title>
<ellipse fill="none" stroke="black" cx="1395.13" cy="-162" rx="42.3701" ry="18"/>
<text text-anchor="middle" x="1395.13" y="-158.3" font-family="Times,serif" font-size="14.00">phf_mac</text>
</g>
<!-- N51&#45;&gt;N48 -->
<g id="edge132" class="edge"><title>N51&#45;&gt;N48</title>
<path fill="none" stroke="black" d="M1567.38,-218.326C1588.88,-206.75 1618.81,-190.634 1640.82,-178.781"/>
<polygon fill="black" stroke="black" points="1642.57,-181.81 1649.72,-173.987 1639.26,-175.647 1642.57,-181.81"/>
</g>
<!-- N51&#45;&gt;N49 -->
<g id="edge133" class="edge"><title>N51&#45;&gt;N49</title>
<path fill="none" stroke="black" d="M1510.43,-218.666C1487.61,-207.648 1455.97,-192.375 1431.61,-180.613"/>
<polygon fill="black" stroke="black" points="1432.86,-177.329 1422.33,-176.133 1429.81,-183.633 1432.86,-177.329"/>
</g>
<!-- N52 -->
<g id="node53" class="node"><title>N52</title>
<ellipse fill="none" stroke="black" cx="1540.13" cy="-162" rx="85.2138" ry="18"/>
<text text-anchor="middle" x="1540.13" y="-158.3" font-family="Times,serif" font-size="14.00">string_cache_macros</text>
</g>
<!-- N51&#45;&gt;N52 -->
<g id="edge134" class="edge"><title>N51&#45;&gt;N52</title>
<path fill="none" stroke="black" d="M1540.13,-215.697C1540.13,-207.983 1540.13,-198.712 1540.13,-190.112"/>
<polygon fill="black" stroke="black" points="1543.63,-190.104 1540.13,-180.104 1536.63,-190.104 1543.63,-190.104"/>
</g>
</g>
</svg>
